<svg width="23" height="23" viewBox="0 0 23 23" fill="none" xmlns="http://www.w3.org/2000/svg">
<mask id="mask0_2208_449" style="mask-type:alpha" maskUnits="userSpaceOnUse" x="3" y="5" width="18" height="14">
<path fill-rule="evenodd" clip-rule="evenodd" d="M3.2792 6.39361C3.2792 5.63085 3.89492 5.01514 4.65767 5.01514C5.42042 5.01514 6.03614 5.63085 6.03614 6.39361C6.03614 7.15636 5.42042 7.77208 4.65767 7.77208C3.89492 7.77208 3.2792 7.15636 3.2792 6.39361ZM3.27917 11.9075C3.27917 11.1447 3.89489 10.529 4.65765 10.529C5.4204 10.529 6.03612 11.1447 6.03612 11.9075C6.03612 12.6703 5.4204 13.286 4.65765 13.286C3.89489 13.286 3.27917 12.6703 3.27917 11.9075ZM4.65765 16.0429C3.89489 16.0429 3.27917 16.6678 3.27917 17.4214C3.27917 18.1749 3.90408 18.7999 4.65765 18.7999C5.41121 18.7999 6.03612 18.1749 6.03612 17.4214C6.03612 16.6678 5.4204 16.0429 4.65765 16.0429ZM19.3613 18.3404H8.33357C7.82813 18.3404 7.41459 17.9268 7.41459 17.4214C7.41459 16.9159 7.82813 16.5024 8.33357 16.5024H19.3613C19.8668 16.5024 20.2803 16.9159 20.2803 17.4214C20.2803 17.9268 19.8668 18.3404 19.3613 18.3404ZM8.33357 12.8265H19.3613C19.8668 12.8265 20.2803 12.4129 20.2803 11.9075C20.2803 11.4021 19.8668 10.9885 19.3613 10.9885H8.33357C7.82813 10.9885 7.41459 11.4021 7.41459 11.9075C7.41459 12.4129 7.82813 12.8265 8.33357 12.8265ZM8.33357 7.31259C7.82813 7.31259 7.41459 6.89905 7.41459 6.39361C7.41459 5.88817 7.82813 5.47463 8.33357 5.47463H19.3613C19.8668 5.47463 20.2803 5.88817 20.2803 6.39361C20.2803 6.89905 19.8668 7.31259 19.3613 7.31259H8.33357Z" fill="black"/>
</mask>
<g mask="url(#mask0_2208_449)">
<rect x="0.751984" y="0.879639" width="22.0555" height="22.0555" fill="white"/>
</g>
</svg>
