<svg width="24" height="24" viewBox="0 0 24 24" fill="none" xmlns="http://www.w3.org/2000/svg">
<path d="M20.5148 10.7002V19.9434C20.5148 20.6807 20.2628 21.3877 19.8144 21.9091C19.366 22.4304 18.7578 22.7233 18.1237 22.7233H5.3606C4.72643 22.7233 4.11813 22.4304 3.66971 21.9091C3.22129 21.3877 2.96948 20.6807 2.96948 19.9434V14.0868" stroke="white" stroke-width="1.5" stroke-linecap="round" stroke-linejoin="round"/>
<path d="M4.24567 1.20312C3.87277 1.20314 3.50928 1.33832 3.20554 1.58981C2.9018 1.8413 2.67293 2.19661 2.55099 2.60631L1.12587 7.39615C0.604008 9.14819 1.53298 10.7 3.24801 10.7C3.87149 10.682 4.48189 10.4879 5.02646 10.1345C5.57102 9.78107 6.0334 9.27896 6.3738 8.67141C6.54955 9.28403 6.89221 9.81342 7.34986 10.1795C7.8075 10.5455 8.35531 10.7282 8.91027 10.7C9.17399 10.09 9.57823 9.57727 10.0781 9.21894C10.578 8.86061 11.1537 8.67073 11.741 8.67073C12.3282 8.67073 12.904 8.86061 13.4038 9.21894C13.9037 9.57727 14.3081 10.09 14.5718 10.7C15.1267 10.7282 15.6744 10.5455 16.1321 10.1795C16.5897 9.81342 16.9324 9.28403 17.1081 8.67141C17.4485 9.279 17.9109 9.78123 18.4555 10.1347C19 10.4881 19.6104 10.6821 20.2339 10.7C21.9489 10.7 22.8779 9.14819 22.356 7.39615L20.9309 2.60631C20.809 2.19661 20.5803 1.8413 20.2765 1.58981C19.9728 1.33832 19.6091 1.20314 19.2362 1.20312H4.24567Z" stroke="white" stroke-width="1.5" stroke-linecap="round" stroke-linejoin="round"/>
<path d="M14.3236 22.7201H9.21021V17.3284C9.21021 16.5784 9.46639 15.8592 9.92255 15.3288C10.3787 14.7985 10.9974 14.5005 11.6425 14.5005H11.8912C12.5363 14.5005 13.1549 14.7985 13.6111 15.3288C14.0672 15.8592 14.3236 16.5784 14.3236 17.3284V22.7201Z" stroke="white" stroke-width="1.5" stroke-linecap="round" stroke-linejoin="round"/>
</svg>
