<svg width="25" height="25" viewBox="0 0 25 25" fill="none" xmlns="http://www.w3.org/2000/svg">
<path d="M18.3915 13.3455V19.6277C18.3915 20.1369 18.1893 20.6253 17.8292 20.9853C17.4691 21.3454 16.9807 21.5477 16.4715 21.5477H7.69476C7.18554 21.5477 6.69715 21.3454 6.33708 20.9853C5.97701 20.6253 5.77476 20.1369 5.77476 19.6277V13.3455" stroke="black" stroke-width="1.5" stroke-linecap="round" stroke-linejoin="round"/>
<path d="M3.44341 11.3063L12.0834 4.26758L20.7234 11.3063" stroke="black" stroke-width="1.5" stroke-linecap="round" stroke-linejoin="round"/>
<path d="M12.0829 14.3477C12.2155 14.3477 12.3229 14.2402 12.3229 14.1077C12.3229 13.9751 12.2155 13.8677 12.0829 13.8677C11.9504 13.8677 11.8429 13.9751 11.8429 14.1077C11.8429 14.2402 11.9504 14.3477 12.0829 14.3477Z" stroke="black" stroke-width="1.5" stroke-linecap="round" stroke-linejoin="round"/>
</svg>
