<svg width="35" height="34" viewBox="0 0 35 34" fill="none" xmlns="http://www.w3.org/2000/svg">
<rect x="0.893806" y="0.167236" width="33.536" height="33.536" rx="9.432" fill="url(#paint0_linear_7_3569)"/>
<path fill-rule="evenodd" clip-rule="evenodd" d="M8.83011 16.0891C9.04556 16.0891 9.22023 16.2943 9.22023 16.5098V19.8003C9.22023 20.0157 9.04556 20.1598 8.83011 20.1598C8.61467 20.1598 8.44 20.0157 8.44 19.8003V16.5098C8.44 16.2943 8.61467 16.0891 8.83011 16.0891Z" fill="black"/>
<path fill-rule="evenodd" clip-rule="evenodd" d="M26.4363 16.0891C26.6518 16.0891 26.8264 16.2943 26.8264 16.5098V19.8003C26.8264 20.0157 26.6518 20.1598 26.4363 20.1598C26.2209 20.1598 26.0462 20.0157 26.0462 19.8003V16.5098C26.0462 16.2943 26.2209 16.0891 26.4363 16.0891Z" fill="black"/>
<path fill-rule="evenodd" clip-rule="evenodd" d="M13.2062 12.0183C13.4216 12.0183 13.5657 12.2235 13.5657 12.439V23.4978C13.5657 23.7132 13.4216 23.8879 13.2062 23.8879C12.9907 23.8879 12.7855 23.7132 12.7855 23.4978V12.439C12.7855 12.2235 12.9907 12.0183 13.2062 12.0183Z" fill="black"/>
<path fill-rule="evenodd" clip-rule="evenodd" d="M21.9925 12.0486H22.0599C22.2754 12.0486 22.45 12.2233 22.45 12.4387V23.4979C22.45 23.7134 22.2754 23.888 22.0599 23.888H21.9925C21.7771 23.888 21.6024 23.7134 21.6024 23.4979V12.4387C21.6024 12.2233 21.7771 12.0486 21.9925 12.0486Z" fill="black"/>
<path fill-rule="evenodd" clip-rule="evenodd" d="M17.2486 4.82199L17.3377 4.71727C17.4646 4.56801 17.6887 4.54986 17.838 4.67673L28.7645 13.9597C28.9139 14.0866 28.932 14.3105 28.805 14.4597L28.7159 14.5644C28.5889 14.7137 28.3649 14.7319 28.2156 14.605L17.2891 5.32201C17.1397 5.19514 17.1216 4.97125 17.2486 4.82199Z" fill="black"/>
<path fill-rule="evenodd" clip-rule="evenodd" d="M17.8645 4.74839L17.9541 4.8526C18.0819 5.00118 18.0652 5.22531 17.9167 5.3532L7.05372 14.7104C6.90524 14.8383 6.68125 14.8216 6.55346 14.673L6.4638 14.5688C6.33598 14.4202 6.35274 14.1961 6.50122 14.0682L17.3642 4.71097C17.5127 4.58305 17.7366 4.59981 17.8645 4.74839Z" fill="black"/>
<path fill-rule="evenodd" clip-rule="evenodd" d="M17.5822 9.27075C17.7976 9.27075 17.9723 9.47595 17.9723 9.69139V28.9595C17.9723 29.175 17.7976 29.3191 17.5822 29.3191C17.3667 29.3191 17.1921 29.175 17.1921 28.9595V9.69139C17.1921 9.47595 17.3667 9.27075 17.5822 9.27075Z" fill="black"/>
<defs>
<linearGradient id="paint0_linear_7_3569" x1="34.4298" y1="33.7847" x2="0.893806" y2="0.248704" gradientUnits="userSpaceOnUse">
<stop stop-color="#FCC83A"/>
<stop offset="1" stop-color="#FFDB78"/>
</linearGradient>
</defs>
</svg>
